<?xml version="1.0" encoding="iso-8859-1"?>
<!-- Generator: Adobe Illustrator 19.0.0, SVG Export Plug-In . SVG Version: 6.00 Build 0)  -->
<svg version="1.1" id="Capa_1" xmlns="http://www.w3.org/2000/svg" xmlns:xlink="http://www.w3.org/1999/xlink" x="0px" y="0px"
	 viewBox="0 0 512 512" style="enable-background:new 0 0 512 512;" xml:space="preserve">
<path style="fill:#B2B6B7;" d="M256,206.551c-4.268,0-7.726-3.459-7.726-7.726v-47.903c0-21.302,17.33-38.632,38.632-38.632
	s38.632,17.33,38.632,38.632v10.302c0,4.267-3.458,7.726-7.726,7.726s-7.726-3.459-7.726-7.726v-10.302
	c0-12.781-10.399-23.179-23.179-23.179c-12.78,0-23.179,10.398-23.179,23.179v47.903C263.726,203.092,260.268,206.551,256,206.551z"
	/>
<path style="fill:#535454;" d="M269.681,195.724c-0.721-3.585-3.874-6.171-7.541-6.171H247.8c-3.667,0-6.82,2.586-7.541,6.171
	l-4.862,24.22v4.618h39.147v-4.618L269.681,195.724z"/>
<path style="fill:#3D3838;" d="M256.227,195.724c0.667-3.316,3.416-5.773,6.727-6.123c-0.268-0.029-0.539-0.047-0.814-0.047H247.8
	c-3.667,0-6.82,2.586-7.541,6.171l-4.862,24.22v4.618h15.968v-4.618L256.227,195.724z"/>
<path style="fill:#898989;" d="M398.165,172.04C461.037,172.04,512,223.003,512,285.875S461.037,399.71,398.165,399.71
	c-38.292,0-72.174-18.914-92.809-47.903h-98.712c-20.635,28.989-54.517,47.903-92.809,47.903C50.963,399.71,0,348.747,0,285.875
	S50.963,172.04,113.835,172.04c38.292,0,72.174,18.914,92.809,47.903h98.712C325.991,190.954,359.873,172.04,398.165,172.04z"/>
<g>
	<path style="fill:#6B7070;" d="M468.163,196.101c18.433,20.228,29.672,47.125,29.672,76.65
		c0,62.872-50.963,113.835-113.835,113.835c-26.381,0-50.668-8.979-69.973-24.044c20.82,22.834,50.806,37.169,84.138,37.169
		C461.037,399.71,512,348.747,512,285.875C512,249.399,494.843,216.935,468.163,196.101z"/>
	<path style="fill:#6B7070;" d="M281.098,338.682h-82.826c-3.509,0-6.86,1.564-9.027,4.323c-12.2,15.529-28.357,27.8-46.945,35.315
		c-28.719-20.663-47.432-54.361-47.432-92.445c0-45.941,27.213-85.517,66.398-103.504c-14.741-6.766-31.171-10.483-48.487-10.326
		C50.938,172.607,0.458,223.177,0.003,285.018c-0.219,29.861,11.058,57.083,29.669,77.507l0,0c0.004,0.004,0.008,0.009,0.012,0.013
		c0.628,0.69,1.266,1.371,1.912,2.046c0.133,0.138,0.269,0.274,0.402,0.411c0.521,0.539,1.046,1.076,1.577,1.604
		c0.185,0.184,0.374,0.364,0.56,0.547c0.486,0.477,0.974,0.951,1.468,1.419c0.217,0.205,0.438,0.407,0.656,0.611
		c0.47,0.438,0.942,0.875,1.42,1.304c0.24,0.216,0.483,0.43,0.725,0.644c0.463,0.41,0.927,0.817,1.396,1.22
		c0.258,0.221,0.518,0.44,0.779,0.658c0.462,0.388,0.926,0.776,1.394,1.157c0.269,0.219,0.541,0.437,0.812,0.654
		c0.466,0.373,0.933,0.742,1.405,1.107c0.28,0.217,0.562,0.433,0.845,0.648c0.47,0.357,0.943,0.711,1.419,1.061
		c0.288,0.212,0.577,0.422,0.866,0.632c0.479,0.346,0.962,0.687,1.447,1.025c0.293,0.204,0.585,0.408,0.879,0.61
		c0.489,0.335,0.983,0.664,1.477,0.992c0.296,0.196,0.591,0.393,0.889,0.585c0.505,0.327,1.013,0.647,1.523,0.966
		c0.294,0.183,0.585,0.369,0.88,0.549c0.526,0.322,1.058,0.639,1.59,0.953c0.284,0.168,0.567,0.339,0.853,0.504
		c0.559,0.323,1.124,0.64,1.689,0.954c0.264,0.147,0.525,0.297,0.791,0.442c0.622,0.34,1.251,0.671,1.879,0.999
		c0.213,0.111,0.423,0.226,0.637,0.336c0.8,0.411,1.606,0.813,2.417,1.205c0.045,0.022,0.09,0.045,0.134,0.067
		c0.876,0.422,1.757,0.834,2.646,1.235c0.023,0.01,0.046,0.02,0.069,0.03c0.844,0.38,1.693,0.75,2.547,1.109
		c0.245,0.103,0.494,0.201,0.741,0.303c0.636,0.263,1.272,0.524,1.913,0.776c0.313,0.123,0.63,0.239,0.945,0.36
		c0.578,0.22,1.155,0.441,1.737,0.652c0.354,0.129,0.712,0.251,1.068,0.376c0.548,0.193,1.096,0.385,1.648,0.57
		c0.378,0.127,0.758,0.247,1.137,0.369c0.537,0.173,1.072,0.345,1.612,0.51c0.392,0.121,0.788,0.236,1.183,0.351
		c0.531,0.157,1.062,0.311,1.597,0.459c0.406,0.113,0.813,0.221,1.221,0.331c0.527,0.14,1.056,0.278,1.586,0.411
		c0.416,0.104,0.834,0.206,1.253,0.306c0.526,0.126,1.054,0.248,1.582,0.366c0.425,0.095,0.852,0.188,1.278,0.278
		c0.527,0.111,1.057,0.218,1.588,0.323c0.431,0.084,0.861,0.168,1.294,0.248c0.534,0.099,1.069,0.192,1.606,0.282
		c0.432,0.073,0.862,0.146,1.295,0.214c0.543,0.086,1.087,0.165,1.632,0.242c0.433,0.062,0.864,0.125,1.298,0.181
		c0.551,0.072,1.104,0.137,1.658,0.201c0.431,0.05,0.86,0.102,1.293,0.147c0.568,0.06,1.137,0.11,1.707,0.161
		c0.421,0.038,0.842,0.079,1.264,0.112c0.599,0.047,1.2,0.083,1.801,0.121c0.397,0.025,0.792,0.055,1.19,0.075
		c0.668,0.035,1.339,0.058,2.01,0.081c0.334,0.011,0.667,0.029,1.001,0.038c1.006,0.027,2.017,0.04,3.031,0.04
		c1.131,0,2.258-0.02,3.382-0.053c0.378-0.011,0.753-0.032,1.13-0.046c0.744-0.029,1.487-0.06,2.226-0.103
		c0.452-0.027,0.901-0.061,1.352-0.093c0.659-0.046,1.318-0.095,1.973-0.152c0.484-0.042,0.966-0.091,1.449-0.139
		c0.617-0.062,1.232-0.128,1.845-0.2c0.502-0.059,1.002-0.121,1.502-0.185c0.588-0.077,1.175-0.16,1.761-0.245
		c0.513-0.075,1.025-0.15,1.536-0.232c0.562-0.091,1.121-0.189,1.68-0.287c0.526-0.093,1.053-0.182,1.577-0.282
		s1.046-0.21,1.568-0.317c0.549-0.112,1.1-0.22,1.647-0.341c0.293-0.065,0.582-0.139,0.875-0.205c1.473-0.332,2.935-0.716,4.396-1.1
		c0.252-0.066,0.504-0.132,0.754-0.202c0.651-0.181,1.297-0.376,1.944-0.569c0.369-0.11,0.74-0.217,1.106-0.332
		c0.645-0.2,1.286-0.409,1.926-0.62c0.359-0.118,0.717-0.236,1.073-0.357c0.648-0.22,1.292-0.448,1.935-0.68
		c0.337-0.122,0.673-0.244,1.008-0.369c0.657-0.244,1.313-0.493,1.965-0.75c0.301-0.118,0.601-0.24,0.9-0.361
		c0.68-0.274,1.358-0.55,2.03-0.837c0.233-0.099,0.464-0.203,0.696-0.304c19.163-8.31,35.6-21.727,47.572-38.545h95.459
		c-1.83-1.895-3.594-3.852-5.291-5.868C292.919,341.31,287.147,338.682,281.098,338.682z"/>
</g>
<g>
	<circle style="fill:#727575;" cx="114.35" cy="285.36" r="80.354"/>
	<circle style="fill:#727575;" cx="398.68" cy="285.36" r="80.354"/>
</g>
<g>
	<path style="fill:#666666;" d="M113.385,272.751c0-25.198,11.607-47.678,29.757-62.41c-8.941-3.434-18.642-5.334-28.791-5.334
		c-44.378,0-80.354,35.976-80.354,80.354s35.976,80.354,80.354,80.354c19.18,0,36.782-6.73,50.597-17.944
		C134.795,336.19,113.385,306.98,113.385,272.751z"/>
	<path style="fill:#666666;" d="M397.715,272.751c0-25.198,11.607-47.678,29.757-62.41c-8.941-3.434-18.642-5.334-28.792-5.334
		c-44.378,0-80.354,35.976-80.354,80.354s35.976,80.354,80.354,80.354c19.18,0,36.782-6.73,50.597-17.944
		C419.125,336.19,397.715,306.98,397.715,272.751z"/>
</g>
<path style="fill:#9D9E9E;" d="M475.991,263.47c-6.983-24.707-25.468-44.581-49.323-53.447l-64.318,63.708
	c-14.26,14.124-14.26,37.027,0,51.152c7.125,7.057,16.473,10.595,25.82,10.595s18.696-3.539,25.82-10.595L475.991,263.47z"/>
<g>
	<circle style="fill:#5B5B59;" cx="390.954" cy="296.177" r="14.423"/>
	<circle style="fill:#5B5B59;" cx="427.01" cy="260.121" r="14.423"/>
</g>
<g>
	<path style="fill:#494747;" d="M388.893,290.779c0-3.392,1.181-6.507,3.142-8.97c-0.358-0.027-0.717-0.055-1.082-0.055
		c-7.963,0-14.423,6.459-14.423,14.423c0,7.963,6.459,14.423,14.423,14.423c4.571,0,8.638-2.134,11.28-5.453
		C394.778,304.592,388.893,298.378,388.893,290.779z"/>
	<path style="fill:#494747;" d="M424.95,254.723c0-3.392,1.181-6.507,3.142-8.97c-0.358-0.027-0.717-0.055-1.082-0.055
		c-7.963,0-14.423,6.459-14.423,14.423c0,7.963,6.459,14.423,14.423,14.423c4.571,0,8.638-2.134,11.28-5.453
		C430.834,268.535,424.95,262.321,424.95,254.723z"/>
</g>
<path style="fill:#727575;" d="M295.147,255.897v2.266c0,5.635-4.564,10.199-10.199,10.199h-57.896
	c-5.635,0-10.199-4.564-10.199-10.199v-2.266c0-5.635,4.564-10.199,10.199-10.199h57.896
	C290.583,245.698,295.147,250.262,295.147,255.897z"/>
<g>
	<path style="fill:#3D3838;" d="M224.58,331.203c-1.977,0-3.955-0.754-5.464-2.263c-3.017-3.017-3.017-7.91,0-10.926l20.089-20.089
		c3.018-3.017,7.91-3.017,10.927,0c3.017,3.017,3.017,7.91,0,10.926l-20.089,20.089C228.534,330.449,226.556,331.203,224.58,331.203
		z"/>
	<path style="fill:#3D3838;" d="M266.817,331.203c-1.977,0-3.955-0.754-5.464-2.263c-3.017-3.017-3.017-7.91,0-10.926l20.089-20.089
		c3.018-3.017,7.91-3.017,10.927,0s3.017,7.91,0,10.926L272.28,328.94C270.772,330.449,268.794,331.203,266.817,331.203z"/>
</g>
<path style="fill:#494747;" d="M172.298,277.314v17.122c0,4.378-3.544,7.922-7.922,7.922h-19.893v19.893
	c0,4.378-3.544,7.922-7.922,7.922h-17.122c-4.378,0-7.922-3.544-7.922-7.922v-19.893H91.624c-4.378,0-7.922-3.544-7.922-7.922
	v-17.122c0-4.378,3.544-7.922,7.922-7.922h19.893V249.5c0-4.378,3.544-7.922,7.922-7.922h17.122c4.378,0,7.922,3.544,7.922,7.922
	v19.893h19.893C168.754,269.392,172.298,272.936,172.298,277.314z"/>
<path style="fill:#5B5B59;" d="M158.133,277.314v17.122c0,4.378-3.544,7.922-7.922,7.922h-19.893v19.893
	c0,4.378-3.544,7.922-7.922,7.922h-17.122c-4.378,0-7.922-3.544-7.922-7.922v-19.893H77.459c-4.378,0-7.922-3.544-7.922-7.922
	v-17.122c0-4.378,3.544-7.922,7.922-7.922h19.893V249.5c0-4.378,3.544-7.922,7.922-7.922h17.122c4.378,0,7.922,3.544,7.922,7.922
	v19.893h19.893C154.589,269.392,158.133,272.936,158.133,277.314z"/>
<g>
</g>
<g>
</g>
<g>
</g>
<g>
</g>
<g>
</g>
<g>
</g>
<g>
</g>
<g>
</g>
<g>
</g>
<g>
</g>
<g>
</g>
<g>
</g>
<g>
</g>
<g>
</g>
<g>
</g>
</svg>
